<svg xmlns="http://www.w3.org/2000/svg" viewBox="0 0 485.67 93.82"><defs><style>.cls-1{fill:#000e54;}.cls-2{fill:#f76900;}</style></defs><title>Asset 2</title><g id="Layer_2" data-name="Layer 2"><g id="Layer_1-2" data-name="Layer 1"><path class="cls-1" d="M109.92,10.43V80.19h-9V10.43Z"/><path class="cls-1" d="M124.41,69.22a31.91,31.91,0,0,0,16.14,4.55c9.21,0,14.6-4.86,14.6-11.9,0-6.52-3.73-10.25-13.15-13.87-11.38-4-18.42-9.94-18.42-19.77,0-10.87,9-18.94,22.56-18.94,7.14,0,12.32,1.66,15.42,3.42l-2.48,7.34a27.81,27.81,0,0,0-13.25-3.31c-9.52,0-13.14,5.69-13.14,10.46,0,6.52,4.24,9.72,13.87,13.45,11.8,4.55,17.8,10.25,17.8,20.49,0,10.77-8,20.08-24.43,20.08-6.73,0-14.07-2-17.8-4.45Z"/><path class="cls-1" d="M189.93,18.09H168.71V10.43h51.64v7.66H199v62.1h-9.1Z"/><path class="cls-2" d="M227.08,69.73A30.41,30.41,0,0,0,242,74c11.69,0,15.32-7.45,15.21-13-.1-9.42-8.59-13.46-17.39-13.46h-5.07V40.65h5.07c6.63,0,15-3.42,15-11.38,0-5.39-3.41-10.15-11.8-10.15a24.7,24.7,0,0,0-13.45,4.45L227.19,17c3.52-2.59,10.35-5.18,17.59-5.18C258,11.77,264,19.64,264,27.82c0,6.93-4.14,12.83-12.42,15.83v.21c8.28,1.65,15,7.86,15,17.28,0,10.77-8.38,20.19-24.53,20.19-7.55,0-14.18-2.38-17.49-4.56Z"/><path class="cls-2" d="M316.41,19.33a33.32,33.32,0,0,0-6.83.41c-14.29,2.38-21.84,12.84-23.4,23.91h.32a20,20,0,0,1,16.24-7.76c11.91,0,20.29,8.59,20.29,21.73,0,12.32-8.38,23.71-22.36,23.71-14.38,0-23.8-11.18-23.8-28.67,0-13.25,4.76-23.7,11.38-30.33a36.72,36.72,0,0,1,21.53-9.94,44.12,44.12,0,0,1,6.63-.51Zm-2.59,38.81c0-9.62-5.49-15.42-13.87-15.42a15,15,0,0,0-13,8.28,7.78,7.78,0,0,0-1,4c.21,11.07,5.28,19.25,14.8,19.25C308.54,74.29,313.82,67.77,313.82,58.14Z"/><path class="cls-2" d="M333.28,69.73A30.4,30.4,0,0,0,348.18,74c11.7,0,15.32-7.45,15.22-13-.11-9.42-8.59-13.46-17.39-13.46h-5.07V40.65H346c6.62,0,15-3.42,15-11.38,0-5.39-3.42-10.15-11.8-10.15a24.74,24.74,0,0,0-13.46,4.45L333.38,17c3.52-2.59,10.35-5.18,17.6-5.18,13.24,0,19.25,7.87,19.25,16.05,0,6.93-4.14,12.83-12.42,15.83v.21c8.28,1.65,15,7.86,15,17.28,0,10.77-8.39,20.19-24.53,20.19-7.56,0-14.18-2.38-17.5-4.56Z"/><path class="cls-1" d="M430.35,1.27,426.12.1a1.94,1.94,0,0,0-1.61.17,2.26,2.26,0,0,0-1.06,1.34L398,89.82a2.09,2.09,0,0,0,.17,1.68,2.27,2.27,0,0,0,1.34,1.06l4.23,1.16a1.94,1.94,0,0,0,1.61-.17,2.24,2.24,0,0,0,1.06-1.33L431.86,4a2.1,2.1,0,0,0-.17-1.68A2.22,2.22,0,0,0,430.35,1.27Z"/><path class="cls-1" d="M49,11.73a2.67,2.67,0,0,0-.84-1.94L44,5.58a2.66,2.66,0,0,0-3.88,0L.84,44.81a2.66,2.66,0,0,0,0,3.88L40.07,87.92a2.66,2.66,0,0,0,3.88,0l4.21-4.21a2.65,2.65,0,0,0,0-3.87L15.07,46.75,48.16,13.66A2.65,2.65,0,0,0,49,11.73Z"/><path class="cls-1" d="M484.83,45,445.59,5.74a2.65,2.65,0,0,0-3.87,0L437.51,10a2.66,2.66,0,0,0,0,3.88L470.6,46.91,437.51,80a2.65,2.65,0,0,0,0,3.87l4.21,4.21a2.65,2.65,0,0,0,3.87,0l39.24-39.23a2.65,2.65,0,0,0,0-3.87Z"/></g></g></svg>